<svg xmlns="http://www.w3.org/2000/svg" viewBox="0 0 64 64" fill="none">
  <rect width="64" height="64" rx="14" fill="#07101f"/>
  <path d="M32 8C26 8 21 11.5 18 15c-2 2.5-4 3.5-6 3.5C10 18.5 9 19.5 9 21c0 5 1.5 10 4 16.5C15.5 43 17 54 20 54c2 0 3-3 4-6 1-3 2.5-5.5 8-5.5s7 2.5 8 5.5c1 3 2 6 4 6 3 0 4.5-11 7-17.5C53.5 31 55 26 55 21c0-1.5-1-2.5-2-2.5-2 0-4-1-6-3.5C44 11.5 38 8 32 8z" fill="url(#grad)"/>
  <defs>
    <linearGradient id="grad" x1="9" y1="8" x2="55" y2="54" gradientUnits="userSpaceOnUse">
      <stop offset="0%" stop-color="#38bdf8"/>
      <stop offset="100%" stop-color="#1a6fb5"/>
    </linearGradient>
  </defs>
</svg>
